<?xml version="1.0" standalone="no"?>
<!DOCTYPE svg PUBLIC "-//W3C//DTD SVG 20010904//EN"
 "http://www.w3.org/TR/2001/REC-SVG-20010904/DTD/svg10.dtd">
<svg version="1.0" xmlns="http://www.w3.org/2000/svg"
 width="260.000000pt" height="260.000000pt" viewBox="0 0 260.000000 260.000000"
 preserveAspectRatio="xMidYMid meet">
<metadata>
Created by potrace 1.14, written by Peter Selinger 2001-2017
</metadata>
<g transform="translate(0.000000,260.000000) scale(0.100000,-0.100000)"
fill="#000000" stroke="none">
<path d="M690 2055 c-19 -7 -150 -50 -290 -95 -140 -45 -286 -92 -324 -104
-38 -13 -65 -26 -59 -29 5 -3 93 -37 195 -75 132 -49 191 -66 209 -61 30 8
116 28 149 34 48 9 65 13 105 23 22 6 51 13 65 16 93 18 132 26 138 30 4 2 25
7 47 10 22 4 56 11 75 16 19 5 46 11 60 14 14 3 36 8 50 11 14 3 51 11 83 17
31 7 54 15 50 19 -9 8 -498 189 -510 188 -4 0 -24 -6 -43 -14z"/>
<path d="M1805 2058 c-16 -6 -57 -21 -90 -33 -33 -12 -105 -39 -160 -60 -55
-20 -116 -43 -135 -51 -19 -7 -48 -19 -65 -25 -30 -11 -30 -11 30 -25 153 -35
650 -146 765 -171 39 -8 35 -9 223 61 98 36 182 66 188 66 27 0 -8 21 -64 39
-34 10 -196 62 -360 115 -164 53 -299 96 -300 95 -1 0 -15 -5 -32 -11z"/>
<path d="M1115 1779 c-71 -15 -146 -30 -165 -33 -19 -3 -69 -12 -110 -21 -41
-9 -84 -18 -95 -21 -11 -2 -31 -6 -45 -9 -14 -3 -36 -7 -50 -10 -14 -3 -36 -7
-50 -10 -14 -2 -38 -7 -55 -10 -16 -3 -57 -11 -90 -18 l-60 -13 -3 -465 -2
-465 152 -31 c84 -17 155 -29 158 -26 2 2 5 86 6 186 1 100 2 184 3 188 0 3
124 5 274 5 l272 -1 3 384 c1 212 -1 388 -5 391 -5 3 -66 -6 -138 -21z m-119
-406 c-1 -24 -6 -37 -16 -38 -23 -3 -137 -16 -191 -21 l-49 -5 0 34 c0 39 4
41 135 53 39 3 72 8 74 10 2 2 14 4 26 4 19 0 22 -5 21 -37z"/>
<path d="M1320 1422 c0 -363 1 -390 18 -394 9 -2 133 -3 275 -3 141 0 257 -2
258 -5 0 -3 2 -13 4 -24 8 -44 6 -44 -258 -44 -139 0 -262 -1 -274 -1 l-23 -1
0 -211 c0 -196 1 -210 18 -205 17 5 53 12 107 21 17 2 109 21 205 40 96 19
257 52 358 71 l182 37 0 297 0 298 -22 -1 c-23 0 -178 7 -398 19 -63 4 -120 7
-127 7 -15 0 -14 64 1 70 6 2 22 3 36 2 14 -2 86 -6 160 -9 74 -4 184 -9 243
-12 l108 -6 -3 134 -3 133 -110 21 c-390 77 -484 96 -520 104 -39 9 -74 16
-125 25 -61 10 -76 14 -92 20 -17 7 -18 -15 -18 -383z"/>
<path d="M810 950 l-34 -5 1 -158 c0 -87 2 -159 4 -161 2 -1 101 -22 219 -45
118 -23 225 -45 238 -48 l22 -5 0 211 c0 162 -3 211 -12 212 -60 4 -411 3
-438 -1z"/>
</g>
</svg>
